<svg  viewBox="0 0 28 30" fill="none" xmlns="http://www.w3.org/2000/svg">
<path fill-rule="evenodd" clip-rule="evenodd" d="M17.6134 19.0023C17.533 19.1094 17.4855 19.229 17.3906 19.4682C17.2947 19.7101 17.2051 19.9542 17.1219 20.2004C15.0983 20.8837 12.9016 20.8836 10.878 20.2003C10.7949 19.9541 10.7053 19.71 10.6094 19.4682C10.5145 19.229 10.467 19.1094 10.3866 19.0023C10.3062 18.8952 10.1691 18.7886 9.89485 18.5756C8.14079 17.2126 7 14.9991 7 12.5C7 8.35786 10.134 5 14 5C17.866 5 21 8.35786 21 12.5C21 14.9991 19.8592 17.2126 18.1051 18.5756C17.8309 18.7886 17.6938 18.8952 17.6134 19.0023ZM11.4453 22.4323C11.5635 23.1127 11.6349 23.8022 11.6582 24.4959C11.6686 24.8061 11.8375 25.0915 12.1111 25.2381C13.291 25.8702 14.709 25.8702 15.8889 25.2381C16.1625 25.0915 16.3314 24.8061 16.3418 24.4959C16.3651 23.8022 16.4365 23.1128 16.5547 22.4323C14.8729 22.8064 13.1271 22.8063 11.4453 22.4323Z" fill="#FBCF04"/>
</svg>
