<svg width="30" height="31" viewBox="0 0 30 31" fill="none" xmlns="http://www.w3.org/2000/svg">
<path d="M7.5 16.7918V6.9585C7.5 6.72279 7.5 6.60494 7.57322 6.53172C7.64645 6.4585 7.7643 6.4585 8 6.4585H13.123C13.4278 6.4585 13.5803 6.4585 13.7021 6.53489C13.8239 6.61128 13.8903 6.7485 14.0231 7.02294L14.7269 8.47739C14.8597 8.75183 14.9261 8.88905 15.0479 8.96544C15.1697 9.04183 15.3222 9.04183 15.627 9.04183H22C22.2357 9.04183 22.3536 9.04183 22.4268 9.11505C22.5 9.18828 22.5 9.30613 22.5 9.54183V18.8752C22.5 19.1109 22.5 19.2287 22.4268 19.3019C22.3536 19.3752 22.2357 19.3752 22 19.3752H15.627C15.3222 19.3752 15.1697 19.3752 15.0479 19.2988C14.9261 19.2224 14.8597 19.0852 14.7269 18.8107L14.0231 17.3563C13.8903 17.0818 13.8239 16.9446 13.7021 16.8682C13.5803 16.7918 13.4278 16.7918 13.123 16.7918H7.5ZM7.5 16.7918V24.5418" stroke="#00FF7F" stroke-width="2" stroke-linecap="round"/>
</svg>
